<svg fill="white" xmlns="http://www.w3.org/2000/svg" viewBox="0 0 50 50" width="30px" height="30px"><path fill="none" stroke="#000000" stroke-miterlimit="10" stroke-width="2" /><path d="M38,28h-7.264l2.344,4H38c1.104,0,2-0.896,2-2S39.104,28,38,28z"/><path d="M25.981,15.965l-1.81-3.088c-0.559-0.953-1.784-1.272-2.737-0.714c-0.953,0.559-1.273,1.784-0.714,2.737l2.943,5.022	L25.981,15.965z"/><path d="M28.264,12.163c-0.954-0.558-2.179-0.239-2.737,0.714L15.494,30h4.636l8.849-15.101	C29.537,13.946,29.217,12.721,28.264,12.163z"/><path d="M37.124,34.981l-8.813-15.04l-0.826,1.373c-0.912,1.516-0.943,3.393-0.109,4.942l6.297,10.746	c0.372,0.636,1.041,0.989,1.728,0.989c0.343,0,0.691-0.088,1.009-0.274C37.363,37.159,37.683,35.934,37.124,34.981z"/><path d="M27.033,29.644l-0.003-0.004c-0.387-0.674-0.924-1.224-1.549-1.64H12c-1.104,0-2,0.896-2,2s0.896,2,2,2h15.413	C27.57,31.237,27.473,30.409,27.033,29.644z"/><path d="M17.094,35.18c-0.585-0.683-1.441-1.147-2.464-1.177l-0.005,0c-0.557-0.016-1.099,0.072-1.614,0.234l-0.444,0.758	c-0.559,0.952-0.239,2.178,0.714,2.736c0.318,0.187,0.666,0.274,1.009,0.274c0.687,0,1.355-0.354,1.728-0.989L17.094,35.18z"/></svg>